HIERARCHY
ROOT hip
{
	OFFSET 0.000000 0.000000 0.000000
	CHANNELS 6 Xposition Yposition Zposition Zrotation Yrotation Xrotation 
	JOINT lhipjoint
	{
		OFFSET 0.000000 0.000000 0.000000
		CHANNELS 3 Zrotation Yrotation Xrotation
		JOINT lfemur
		{
			OFFSET 1.363060 -1.794630 0.839290
			CHANNELS 3 Zrotation Yrotation Xrotation
			JOINT ltibia
			{
				OFFSET 2.448110 -6.726130 0.000000
				CHANNELS 3 Zrotation Yrotation Xrotation
				JOINT lfoot
				{
					OFFSET 2.562200 -7.039590 0.000000
					CHANNELS 3 Zrotation Yrotation Xrotation
					JOINT ltoes
					{
						OFFSET 0.157640 -0.433110 2.322550
						CHANNELS 3 Zrotation Yrotation Xrotation
						End Site
						{
							OFFSET 0.000000 0.000000 0.000000
						}
					}
				}
			}
		}
	}
	JOINT rhipjoint
	{
		OFFSET 0.000000 0.000000 0.000000
		CHANNELS 3 Zrotation Yrotation Xrotation
		JOINT rfemur
		{
			OFFSET -1.305520 -1.794630 0.839290
			CHANNELS 3 Zrotation Yrotation Xrotation
			JOINT rtibia
			{
				OFFSET -2.542530 -6.985550 0.000000
				CHANNELS 3 Zrotation Yrotation Xrotation
				JOINT rfoot
				{
					OFFSET -2.568260 -7.056230 0.000000
					CHANNELS 3 Zrotation Yrotation Xrotation
					JOINT rtoes
					{
						OFFSET -0.164730 -0.452590 2.363150
						CHANNELS 3 Zrotation Yrotation Xrotation
						End Site
						{
							OFFSET 0.000000 0.000000 0.000000
						}
					}
				}
			}
		}
	}
	JOINT lowerback
	{
		OFFSET 0.000000 0.000000 0.000000
		CHANNELS 3 Zrotation Yrotation Xrotation
		JOINT upperback
		{
			OFFSET 0.028270 2.035590 -0.193380
			CHANNELS 3 Zrotation Yrotation Xrotation
			JOINT thorax
			{
				OFFSET 0.056720 2.048850 -0.042750
				CHANNELS 3 Zrotation Yrotation Xrotation
				JOINT lowerneck
				{
					OFFSET 0.000000 0.000000 0.000000
					CHANNELS 3 Zrotation Yrotation Xrotation
					JOINT upperneck
					{
						OFFSET -0.054170 1.746240 0.172020
						CHANNELS 3 Zrotation Yrotation Xrotation
						JOINT head
						{
							OFFSET 0.104070 1.761360 -0.123970
							CHANNELS 3 Zrotation Yrotation Xrotation
							End Site
							{
								OFFSET 0.000000 0.000000 0.000000
							}
						}
					}
				}
				JOINT lclavicle
				{
					OFFSET 0.000000 0.000000 0.000000
					CHANNELS 3 Zrotation Yrotation Xrotation
					JOINT lhumerus
					{
						OFFSET 3.362410 1.200890 -0.311210
						CHANNELS 3 Zrotation Yrotation Xrotation
						JOINT lradius
						{
							OFFSET 4.983000 -0.000000 -0.000000
							CHANNELS 3 Zrotation Yrotation Xrotation
							JOINT lwrist
							{
								OFFSET 3.483560 -0.000000 -0.000000
								CHANNELS 3 Zrotation Yrotation Xrotation
								JOINT lhand
								{
									OFFSET 0.000000 0.000000 0.000000
									CHANNELS 3 Zrotation Yrotation Xrotation
									JOINT lfingers
									{
										OFFSET 0.715260 -0.000000 -0.000000
										CHANNELS 3 Zrotation Yrotation Xrotation
										End Site
										{
											OFFSET 0.000000 0.000000 0.000000
										}
									}
								}
								JOINT lthumb
								{
									OFFSET 0.000000 0.000000 0.000000
									CHANNELS 3 Zrotation Yrotation Xrotation
									End Site
									{
										OFFSET 0.000000 0.000000 0.000000
									}
								}
							}
						}
					}
				}
				JOINT rclavicle
				{
					OFFSET 0.000000 0.000000 0.000000
					CHANNELS 3 Zrotation Yrotation Xrotation
					JOINT rhumerus
					{
						OFFSET -3.136600 1.374050 -0.404650
						CHANNELS 3 Zrotation Yrotation Xrotation
						JOINT rradius
						{
							OFFSET -5.241900 -0.000000 -0.000000
							CHANNELS 3 Zrotation Yrotation Xrotation
							JOINT rwrist
							{
								OFFSET -3.444170 -0.000000 -0.000000
								CHANNELS 3 Zrotation Yrotation Xrotation
								JOINT rhand
								{
									OFFSET 0.000000 0.000000 0.000000
									CHANNELS 3 Zrotation Yrotation Xrotation
									JOINT rfingers
									{
										OFFSET -0.622530 -0.000000 -0.000000
										CHANNELS 3 Zrotation Yrotation Xrotation
										End Site
										{
											OFFSET 0.000000 0.000000 0.000000
										}
									}
								}
								JOINT rthumb
								{
									OFFSET 0.000000 0.000000 0.000000
									CHANNELS 3 Zrotation Yrotation Xrotation
									End Site
									{
										OFFSET 0.000000 0.000000 0.000000
									}
								}
							}
						}
					}
				}
			}
		}
	}
}
MOTION
Frames: 12
Frame Time: 0.008333
-2.854219 27.978375 29.191590 -175.331322 -7.212436 172.578187 9.315079 2.002171 -1.879647 -29.756216 -1.093005 1.561165 3.474879 10.444908 32.047537 -1.296865 7.426067 -10.124476 0.056100 -1.528900 -4.205400 -14.067206 -3.511396 -3.051915 44.121715 6.789224 0.487072 -3.333376 -9.814081 30.110649 -0.114902 -2.950005 -5.649038 -0.350000 3.801000 -10.517600 2.793404 1.120851 15.880288 0.383204 1.135529 -2.324301 -1.860742 1.241309 -1.880820 -3.979740 1.357020 -2.565071 4.078303 0.868192 16.414696 1.786900 -0.240400 4.655800 1.367717 -4.544554 2.836977 -80.240292 1.515896 -0.426157 -1.938341 -23.985820 -1.995129 0.600329 1.345270 29.391857 13.714767 -4.346312 -1.438900 -7.125000 0.000000 0.000000 -9.513200 23.973400 4.892200 -4.115666 6.470608 4.159642 82.695976 -0.484762 14.173754 -1.845647 25.666115 -2.023529 -1.825340 -2.190141 31.158958 -17.612056 8.889154 -3.647500 7.125000 0.000000 0.000000 6.952100 -17.625300 4.554500 
-2.854219 27.976684 29.184724 -175.350081 -7.173605 172.664275 9.317725 2.003998 -1.885419 -29.774028 -1.091154 1.537550 3.469352 10.441404 32.027833 -1.264996 7.354665 -10.200115 0.049900 -1.442100 -3.966100 -14.073161 -3.514212 -3.029402 44.102457 6.868717 0.354129 -3.344605 -9.841877 30.179900 -0.131489 -2.897921 -5.618229 -0.340800 3.751300 -10.377900 2.748410 0.997962 15.937725 0.398901 0.968354 -2.325805 -1.807573 1.156367 -1.865446 -3.956227 1.416283 -2.664192 4.084050 0.945552 16.405915 1.756700 -0.194100 4.683300 1.345700 -4.568273 2.824320 -80.050275 1.538413 0.069398 -1.994218 -24.018162 -1.976061 0.597981 1.331225 29.447423 13.643197 -4.461799 -1.455500 -7.125000 0.000000 0.000000 -9.562800 23.872400 4.941000 -4.073710 6.501260 4.172218 82.645261 -0.783456 13.807689 -2.036993 25.696060 -2.053896 -1.818817 -2.211390 31.080119 -17.767418 8.833192 -3.673400 7.125000 0.000000 0.000000 6.834000 -17.653300 4.471800 
-2.853324 27.974793 29.177758 -175.366553 -7.155935 172.742873 9.318968 2.006385 -1.889588 -29.778699 -1.081773 1.509885 3.464219 10.439556 32.013539 -1.214990 7.238083 -10.272836 0.047000 -1.399500 -3.848700 -14.078765 -3.517754 -3.008384 44.087595 6.931585 0.234304 -3.355109 -9.867423 30.244246 -0.144144 -2.858621 -5.594800 -0.332500 3.706100 -10.251200 2.700022 0.862818 16.016358 0.415788 0.787344 -2.329822 -1.736453 1.065111 -1.886947 -3.956694 1.496023 -2.711899 4.097637 1.049854 16.385076 1.738600 -0.136500 4.683800 1.310706 -4.611887 2.812948 -79.864168 1.639475 0.644807 -1.962932 -24.155952 -1.970379 0.590007 1.325768 29.396633 13.510474 -4.601616 -1.472800 -7.125000 0.000000 0.000000 -9.651000 23.743800 5.016900 -4.020680 6.551562 4.193545 82.568825 -1.180072 13.718761 -2.364319 25.852558 -2.094128 -1.801065 -2.258179 30.767834 -17.872161 8.736811 -3.682100 7.125000 0.000000 0.000000 6.743100 -17.712100 4.402700 
-2.851533 27.973201 29.170196 -175.388590 -7.129568 172.809377 9.317903 2.010429 -1.894514 -29.768875 -1.025581 1.474001 3.460061 10.440021 32.006602 -1.159775 7.104254 -10.306520 0.043100 -1.340500 -3.686300 -14.080958 -3.523196 -2.993017 44.062851 6.952050 0.115817 -3.365405 -9.892077 30.307367 -0.153074 -2.827723 -5.526302 -0.315400 3.610400 -9.982900 2.646439 0.739503 16.118659 0.431631 0.619710 -2.331153 -1.658073 0.979632 -1.887260 -3.983405 1.567022 -2.801562 4.115404 1.147609 16.362869 1.735600 -0.084300 4.698900 1.270928 -4.652621 2.800006 -79.692167 1.757785 1.350148 -1.843467 -24.411947 -1.977405 0.574827 1.332839 29.328960 13.292717 -4.690765 -1.470600 -7.125000 0.000000 0.000000 -9.795000 23.661600 5.112800 -3.972264 6.593025 4.209828 82.492630 -1.540795 13.611112 -2.638692 25.972721 -2.129271 -1.788886 -2.288763 30.436059 -17.963530 8.746041 -3.713800 7.125000 0.000000 0.000000 6.672300 -17.674200 4.361400 
-2.850239 27.971509 29.163429 -175.400126 -7.138164 172.880486 9.316865 2.013567 -1.899389 -29.750530 -0.990180 1.433369 3.455486 10.441480 32.000911 -1.091678 6.936849 -10.323066 0.038700 -1.269000 -3.489200 -14.085266 -3.526390 -2.975122 44.051894 7.001325 0.006782 -3.374976 -9.914755 30.364474 -0.139451 -2.870076 -5.466050 -0.288600 3.454700 -9.547200 2.616114 0.602760 16.235909 0.448278 0.438834 -2.333377 -1.594682 0.887530 -1.904765 -3.979914 1.630326 -2.872301 4.110677 1.239466 16.320177 1.707300 -0.029100 4.694700 1.225777 -4.701880 2.788871 -79.529041 1.939470 2.162874 -1.629091 -24.779336 -2.002333 0.559084 1.352197 29.128217 13.113294 -4.738960 -1.465700 -7.125000 0.000000 0.000000 -9.910200 23.608600 5.187000 -3.904406 6.648899 4.233347 82.391905 -1.970146 13.750827 -3.047911 26.221020 -2.173530 -1.763878 -2.341497 29.884930 -17.970259 8.739308 -3.727200 7.125000 0.000000 0.000000 6.652900 -17.648300 4.352400 
-2.848547 27.969519 29.154473 -175.404720 -7.138732 172.966656 9.316310 2.016680 -1.904551 -29.728807 -0.981482 1.395463 3.452746 10.444974 32.002525 -1.022220 6.769764 -10.374511 0.031600 -1.146700 -3.152600 -14.088218 -3.533409 -2.960060 44.040086 7.012279 -0.123422 -3.383878 -9.938772 30.422273 -0.128524 -2.901398 -5.364961 -0.259300 3.276100 -9.048300 2.591935 0.487533 16.315884 0.463529 0.284951 -2.332325 -1.531144 0.809381 -1.899389 -3.991456 1.687586 -2.928230 4.123832 1.324501 16.276506 1.699500 0.022200 4.673600 1.166359 -4.746569 2.783629 -79.332309 2.164682 3.194885 -1.322982 -25.271302 -2.040504 0.535793 1.385098 28.774410 12.872475 -4.699073 -1.436100 -7.125000 0.000000 0.000000 -10.068200 23.637400 5.265300 -3.834463 6.696807 4.260537 82.311384 -2.426492 13.904891 -3.474850 26.497357 -2.217699 -1.736487 -2.389741 29.354465 -17.932205 8.782473 -3.744400 7.125000 0.000000 0.000000 6.665100 -17.579500 4.370600 
-2.847055 27.968225 29.145617 -175.422755 -7.149774 173.032968 9.314371 2.021334 -1.910944 -29.701900 -0.905897 1.350736 3.448531 10.448495 32.003090 -0.930991 6.545152 -10.396407 0.026800 -1.057200 -2.906200 -14.088934 -3.539843 -2.951442 44.015301 7.001956 -0.221953 -3.391837 -9.957706 30.470073 -0.129248 -2.896251 -5.296177 -0.236000 3.126200 -8.630400 2.561635 0.360898 16.431376 0.478621 0.114152 -2.330117 -1.463831 0.722293 -1.883164 -4.008803 1.755596 -3.021374 4.124443 1.424826 16.247012 1.684600 0.078800 4.676000 1.101646 -4.791991 2.773802 -79.158639 2.410255 4.244341 -0.939756 -25.834603 -2.093131 0.512126 1.422687 28.355405 12.650455 -4.686632 -1.416200 -7.125000 0.000000 0.000000 -10.209800 23.632900 5.342800 -3.751272 6.745145 4.287965 82.168510 -2.907929 14.322267 -3.966955 26.839190 -2.265582 -1.703821 -2.444581 28.547880 -17.836906 8.883614 -3.765400 7.125000 0.000000 0.000000 6.722600 -17.453500 4.427500 
-2.844965 27.965339 29.136363 -175.423686 -7.169010 173.093856 9.310116 2.025493 -1.917532 -29.652367 -0.833093 1.307724 3.445422 10.451745 32.004615 -0.853002 6.351268 -10.399572 0.023900 -0.998200 -2.743800 -14.092262 -3.544582 -2.941813 44.017916 7.007237 -0.309789 -3.398068 -9.975804 30.514580 -0.118773 -2.927337 -5.221028 -0.215700 2.989700 -8.250100 2.544210 0.232222 16.564577 0.495949 -0.055047 -2.327816 -1.393066 0.634695 -1.890115 -4.020050 1.812328 -3.066317 4.104077 1.514865 16.193554 1.651500 0.134700 4.644900 1.033330 -4.845035 2.769874 -78.965953 2.715756 5.472619 -0.443637 -26.527411 -2.166229 0.481471 1.479159 27.720904 12.390309 -4.534402 -1.365100 -7.125000 0.000000 0.000000 -10.380800 23.755000 5.405400 -3.664433 6.804584 4.319260 82.082868 -3.425650 14.593904 -4.483980 27.190270 -2.313600 -1.669492 -2.490728 27.896805 -17.673879 9.033506 -3.783800 7.125000 0.000000 0.000000 6.824500 -17.290700 4.520100 
-2.842179 27.964643 29.123725 -175.427425 -7.192024 173.182751 9.306080 2.029990 -1.926708 -29.594035 -0.748849 1.246796 3.440979 10.454425 32.000861 -0.761107 6.123856 -10.411581 0.022400 -0.966800 -2.657400 -14.097288 -3.550603 -2.933760 44.022048 7.010720 -0.405847 -3.402291 -9.990575 30.545553 -0.112935 -2.946209 -5.188739 -0.201000 2.886600 -7.963100 2.511027 0.123258 16.637391 0.512715 -0.202783 -2.321231 -1.291143 0.557661 -1.852581 -4.041400 1.862819 -3.117464 4.087740 1.600624 16.133488 1.619200 0.192400 4.595700 0.967993 -4.885738 2.769584 -78.813834 3.006061 6.606132 0.054684 -27.214361 -2.243478 0.451800 1.530469 27.255628 12.150116 -4.421401 -1.324900 -7.125000 0.000000 0.000000 -10.534600 23.840800 5.467000 -3.555849 6.848726 4.361957 81.945133 -4.014618 15.165020 -5.149527 27.666381 -2.377398 -1.621280 -2.559734 26.941238 -17.482038 9.148432 -3.789500 7.125000 0.000000 0.000000 6.941600 -17.152900 4.619800 
-2.839094 27.963250 29.105714 -175.443193 -7.247429 173.260660 9.299703 2.033881 -1.937820 -29.528176 -0.624672 1.193579 3.436273 10.457693 32.000098 -0.657594 5.863094 -10.385040 0.020500 -0.924300 -2.540500 -14.100309 -3.556192 -2.936108 44.023841 6.981777 -0.454489 -3.405068 -9.999094 30.564290 -0.099994 -2.987468 -5.172680 -0.192800 2.827600 -7.799000 2.472044 0.016661 16.681375 0.529202 -0.352234 -2.310504 -1.194475 0.479700 -1.765541 -4.061648 1.905487 -3.212230 4.061147 1.676871 16.097648 1.579200 0.244500 4.569300 0.894140 -4.914241 2.769452 -78.631557 3.287999 7.849334 0.614332 -27.959694 -2.334393 0.421777 1.586996 26.657170 11.965841 -4.270823 -1.284500 -7.125000 0.000000 0.000000 -10.650900 23.956400 5.500500 -3.436357 6.881249 4.404368 81.826003 -4.655920 15.784570 -5.894894 28.208869 -2.450361 -1.559826 -2.644052 25.856082 -17.230920 9.190257 -3.763300 7.125000 0.000000 0.000000 7.091700 -17.086800 4.731600 
-2.835711 27.962255 29.086906 -175.459428 -7.283539 173.348082 9.293992 2.037964 -1.951163 -29.460078 -0.482767 1.139816 3.430197 10.458977 31.992224 -0.545317 5.581876 -10.378494 0.020700 -0.929800 -2.555600 -14.105618 -3.558598 -2.937922 44.031877 6.983667 -0.486775 -3.405529 -10.003178 30.569969 -0.092886 -3.011466 -5.175127 -0.177900 2.716600 -7.490900 2.414695 -0.097069 16.712266 0.547234 -0.512985 -2.298409 -1.069803 0.394464 -1.679032 -4.107411 1.973796 -3.264232 4.042293 1.789006 16.051738 1.549200 0.314800 4.508900 0.814721 -4.941812 2.774211 -78.460759 3.630861 9.052318 1.250839 -28.765485 -2.441853 0.387843 1.642704 26.036251 11.735310 -4.190483 -1.254700 -7.125000 0.000000 0.000000 -10.795500 24.003700 5.565700 -3.314816 6.908550 4.453956 81.682261 -5.301456 16.392393 -6.615064 28.721010 -2.526906 -1.508295 -2.710480 24.892859 -17.045791 9.317057 -3.772100 7.125000 0.000000 0.000000 7.204600 -16.936500 4.832000 
-2.832626 27.960464 29.067602 -175.444147 -7.324945 173.442105 9.286457 2.041687 -1.964467 -29.352634 -0.354453 1.071273 3.425578 10.461771 31.989431 -0.424084 5.278068 -10.368905 0.020200 -0.917700 -2.522300 -14.113371 -3.563583 -2.936851 44.070133 6.982254 -0.531839 -3.403147 -10.007326 30.570143 -0.089587 -3.023039 -5.179722 -0.168800 2.646800 -7.296900 2.410190 -0.183285 16.744147 0.563946 -0.628606 -2.285822 -0.954965 0.332796 -1.586000 -4.157565 2.010248 -3.345081 4.021675 1.858139 16.016287 1.524200 0.360600 4.472800 0.727954 -4.974938 2.774084 -78.279335 3.971853 10.376459 1.942370 -29.615327 -2.560831 0.356906 1.698107 25.323283 11.560062 -4.150856 -1.239500 -7.125000 0.000000 0.000000 -10.901000 24.006000 5.621400 -3.175956 6.940882 4.503775 81.544176 -6.044076 17.079211 -7.517415 29.364657 -2.627874 -1.433195 -2.809856 23.716462 -16.782275 9.292186 -3.728200 7.125000 0.000000 0.000000 7.355200 -16.927200 4.936200 
